<svg width="2000" height="762" viewBox="0 0 2000 762" fill="none" xmlns="http://www.w3.org/2000/svg">
<path d="M655.546 295.085C657.445 294.656 657.864 294.698 659.816 294.821L660.643 295.929C660.889 304.537 649.887 345.535 647.711 355.718C643.634 374.604 639.7 393.521 635.909 412.466C632.166 431.604 629 450.256 623.614 469.014C616.593 453.857 599.818 433.573 590.763 415.655C537.677 475.935 453.335 531.375 376.736 556.144C312.128 577.1 243.341 581.757 176.498 569.7C173.156 569.138 172.316 569.055 169.292 567.603L169.175 566.525C173.318 564.546 207.475 560.47 215.405 558.759C263.541 548.369 309.618 534.184 353.722 511.803C373.72 501.567 391.865 488.839 411.174 477.525C447.6 456.182 476.742 428.4 507.811 400.311C517.453 391.593 526.446 380.848 536.566 372.945C521.489 364.504 492.986 350.427 480.114 340.694L596.024 309.501C611.165 305.558 641.016 297.157 655.546 295.085Z" fill="#FEAF03"/>
<path d="M394.765 169.479C434.332 166.126 454.028 191.085 483.237 212.057C502.831 226.127 523.493 239.715 542.758 254.407C555.674 264.258 571.853 273.459 582.03 286.234C565.343 288.397 543.25 296.334 526.661 301.502C517.5 294.413 506.344 287.589 497.401 280.435C481.826 268.084 465.95 256.498 449.569 245.096C433.902 234.192 411.441 213.327 390.976 220.496C378.566 224.843 367.531 235.047 356.863 242.396C343.635 251.511 330.073 260.05 317.668 270.294C303.254 282.508 288.269 293.997 272.658 304.637C260.251 313.095 247.391 318.906 241.036 333.244C240.271 336.22 239.294 340.356 239.336 343.464C240.086 399.026 236.777 455.717 241.05 510.965C241.45 516.137 249.941 521.937 254.182 524.109C237.102 530.132 224.955 533.872 206.867 536.789C186.032 517.93 189.16 497.722 189.217 472.359L189.216 421.627L189.167 364.181C189.16 352.326 188.814 338.819 190.221 327.171C190.834 322.093 198.392 305.132 201.51 301.3C219.583 279.086 250.252 259.546 273.58 243.693C283.564 236.775 293.458 229.729 303.262 222.558C332.289 201.528 358.251 174.425 394.765 169.479Z" fill="#FEAF03"/>
<path d="M587.928 460.097C589.855 462.661 592.083 496.857 592.107 502.234C592.211 525.776 595.214 552.27 577.141 570.619C569.82 578.052 556.637 587.805 546.443 589.836C528.111 593.489 502.462 592.052 483.427 592.09C444.366 591.842 405.304 591.94 366.245 592.385C365.209 592.439 364.632 592.244 363.61 592.048L363.694 591.284C367.717 588.478 376.587 586.51 381.543 584.485C410.897 572.489 441.685 564.436 468.722 547.304C471.239 545.71 479.247 541.821 481.816 541.653C529.361 538.553 549.862 554.85 544.721 495.692C552.673 491.491 581.299 467.287 587.928 460.097Z" fill="#FEAF03"/>
<path d="M660.647 509.801L740.499 425.99H960.85C975.687 425.99 984.414 419.877 984.414 408.092C984.414 399.362 977.434 395.434 965.213 395.434H833.371C766.609 395.434 736.939 366.188 736.939 324.28C736.939 260.988 775.773 217.769 882.678 217.769H1107.46L1026.74 302.888H857.804C842.097 302.888 834.677 307.253 834.677 319.475C834.677 328.205 841.22 331.26 853.004 331.26H985.284C1048.55 331.26 1083.03 354.396 1083.03 398.048C1083.03 456.105 1057.72 509.794 944.706 509.794H660.647V509.801Z" fill="#FEAF03"/>
<path d="M1107.46 509.799L1159.39 217.771H1260.18L1223.1 425.988H1445.19L1364.9 509.799H1107.46Z" fill="#FEAF03"/>
<path d="M1564.75 406.783L1546.43 509.799H1445.19L1497.12 217.771H1830.05L1749.76 302.89H1582.64L1578.71 327.77H1794.27L1718.78 406.78H1564.75L1564.75 406.783Z" fill="#FEAF03"/>
<rect x="660.647" y="567.992" width="79.9743" height="6.99593" fill="#FEAF03"/>
<path d="M1684.18 579.613H1692.64C1693.89 583.476 1696.9 586.089 1703.95 586.089C1710.71 586.089 1712.92 583.817 1712.92 580.863C1712.92 577.739 1710.94 575.864 1701.9 574.33C1688.55 572.058 1685.88 567.798 1685.88 562.401C1685.88 554.676 1693.27 550.586 1702.53 550.586C1716.05 550.586 1719.57 557.63 1720.02 562.06H1711.62C1710.94 559.845 1709.52 556.891 1702.3 556.891C1697.3 556.891 1694.46 558.482 1694.46 561.549C1694.46 564.219 1696.11 565.639 1704.18 567.059C1719.17 569.729 1721.56 574.273 1721.56 580.011C1721.56 586.77 1716.22 592.337 1703.21 592.337C1691.05 592.337 1685.43 586.884 1684.18 579.613Z" fill="#FEAF03"/>
<path d="M1642.12 591.54V551.436H1650.47V584.723H1673.53L1672.39 591.54H1642.12Z" fill="#FEAF03"/>
<path d="M1616.32 581.429H1597.98L1593.94 591.54H1585.25L1601.78 551.436H1612.4L1629.73 591.54H1620.58L1616.32 581.429ZM1600.25 574.612H1613.88C1609.79 564.785 1607.8 559.956 1606.84 557.003H1606.78C1605.93 559.843 1603.6 566.205 1600.25 574.612Z" fill="#FEAF03"/>
<path d="M1565.03 591.54H1555.09L1538.33 551.436H1547.64L1555.37 571.261C1558.27 578.702 1559.46 582.508 1560.2 585.007H1560.31C1560.94 582.792 1561.9 580.236 1565.31 571.09L1573.04 551.436H1582.07L1565.03 591.54Z" fill="#FEAF03"/>
<path d="M1507.4 550.586C1521.03 550.586 1528.81 560.356 1528.81 571.32C1528.81 582.51 1521.31 592.394 1507.06 592.394C1493.71 592.394 1485.81 583.078 1485.81 571.376C1485.81 560.3 1494.05 550.586 1507.4 550.586ZM1507.11 557.232C1498.82 557.232 1494.67 563.935 1494.67 571.263C1494.67 579.159 1498.99 585.691 1507.51 585.691C1516.14 585.691 1519.89 578.704 1519.89 571.433C1519.89 563.935 1515.86 557.232 1507.11 557.232Z" fill="#FEAF03"/>
<path d="M1462.62 591.54V575.521C1462.62 568.42 1462.62 561.263 1462.85 556.889H1462.79C1460.8 563.876 1456.03 577.111 1450.98 591.54H1443.59C1439.67 579.156 1434.39 564.103 1432.23 556.889H1432.17C1432.46 561.547 1432.8 569.556 1432.8 576.373V591.54H1425.19V551.436H1437.29C1441.83 564.046 1446.55 576.771 1447.74 581.656H1447.8C1449.56 575.805 1454.21 563.478 1458.53 551.436H1470.74V591.54H1462.62Z" fill="#FEAF03"/>
<path d="M1408.46 567.227V574.044H1385.56V584.723H1410.95L1409.99 591.54H1377.16V551.436H1409.71V558.252H1385.56V567.227H1408.46Z" fill="#FEAF03"/>
<path d="M1343.67 575.464H1334.59V591.54H1326.24V551.436H1347.25C1356.17 551.436 1361.51 555.696 1361.51 562.683C1361.51 567.739 1358.67 570.92 1354.41 572.226C1356.4 572.908 1360.49 574.612 1360.49 581.769V583.644C1360.49 586.541 1360.43 589.722 1360.94 591.54H1352.31C1351.68 589.779 1351.63 587.166 1351.63 583.19V581.883C1351.63 577.225 1349.92 575.464 1343.67 575.464ZM1334.59 557.855V569.045H1345.26C1350.49 569.045 1352.88 567.171 1352.88 563.365C1352.88 559.786 1350.49 557.855 1345.44 557.855H1334.59Z" fill="#FEAF03"/>
<path d="M1258.57 585.805C1261.58 585.805 1263.46 584.896 1266.24 581.885L1256.53 573.478C1253.12 575.296 1252.15 577.625 1252.15 579.84C1252.15 583.078 1254.6 585.805 1258.57 585.805ZM1279.25 565.639H1288.34L1276.01 580.408L1288.91 591.542H1277.49L1271.18 586.146C1267.78 589.838 1264.2 592.337 1257.83 592.337C1248.23 592.337 1244.2 586.202 1244.2 580.749C1244.2 576.262 1246.3 573.194 1252.49 569.672C1249.71 567.059 1248.46 564.389 1248.46 561.095C1248.46 555.698 1252.78 550.586 1260.62 550.586C1268.91 550.586 1272.38 555.755 1272.38 560.413C1272.38 564.787 1269.65 567.4 1264.08 570.127L1271.01 576.091L1279.25 565.639ZM1260.56 555.926C1257.66 555.926 1256.13 558.084 1256.13 560.47C1256.13 562.458 1257.32 564.389 1259.99 566.434C1263.74 564.617 1265.16 562.685 1265.16 560.47C1265.16 558.311 1263.91 555.926 1260.56 555.926Z" fill="#FEAF03"/>
<path d="M1188.02 591.54V558.196H1173.48V551.436H1210.92V558.196H1196.43V591.54H1188.02Z" fill="#FEAF03"/>
<path d="M1144.5 575.464H1135.41V591.54H1127.06V551.436H1148.08C1157 551.436 1162.34 555.696 1162.34 562.683C1162.34 567.739 1159.5 570.92 1155.24 572.226C1157.23 572.908 1161.32 574.612 1161.32 581.769V583.644C1161.32 586.541 1161.26 589.722 1161.77 591.54H1153.14C1152.51 589.779 1152.45 587.166 1152.45 583.19V581.883C1152.45 577.225 1150.75 575.464 1144.5 575.464ZM1135.41 557.855V569.045H1146.09C1151.32 569.045 1153.7 567.171 1153.7 563.365C1153.7 559.786 1151.32 557.855 1146.26 557.855H1135.41Z" fill="#FEAF03"/>
<path d="M1090.57 550.586C1104.21 550.586 1111.99 560.356 1111.99 571.32C1111.99 582.51 1104.49 592.394 1090.23 592.394C1076.88 592.394 1068.99 583.078 1068.99 571.376C1068.99 560.3 1077.22 550.586 1090.57 550.586ZM1090.29 557.232C1081.99 557.232 1077.85 563.935 1077.85 571.263C1077.85 579.159 1082.16 585.691 1090.69 585.691C1099.32 585.691 1103.07 578.704 1103.07 571.433C1103.07 563.935 1099.04 557.232 1090.29 557.232Z" fill="#FEAF03"/>
<path d="M1021.4 591.54V551.436H1041.51C1051.05 551.436 1056.73 556.264 1056.73 563.762C1056.73 571.885 1050.99 576.6 1041.45 576.6H1029.81V591.54H1021.4ZM1029.81 558.025V569.954H1040.71C1045.26 569.954 1048.27 568.477 1048.27 563.876C1048.27 560.241 1045.94 558.025 1040.71 558.025H1029.81Z" fill="#FEAF03"/>
<path d="M968.787 579.613H977.251C978.501 583.476 981.511 586.089 988.555 586.089C995.315 586.089 997.53 583.817 997.53 580.863C997.53 577.739 995.542 575.864 986.51 574.33C973.161 572.058 970.491 567.798 970.491 562.401C970.491 554.676 977.876 550.586 987.135 550.586C1000.65 550.586 1004.18 557.63 1004.63 562.06H996.224C995.542 559.845 994.122 556.891 986.908 556.891C981.909 556.891 979.069 558.482 979.069 561.549C979.069 564.219 980.716 565.639 988.782 567.059C1003.78 569.729 1006.16 574.273 1006.16 580.011C1006.16 586.77 1000.82 592.337 987.817 592.337C975.66 592.337 970.037 586.884 968.787 579.613Z" fill="#FEAF03"/>
<path d="M924.797 591.54H917.071V551.436H927.012C937.578 567.114 944.792 576.714 947.235 581.258H947.348C946.951 576.714 947.007 569.556 947.007 563.024V551.436H954.79V591.54H945.417C940.929 584.894 927.126 564.387 924.569 559.786H924.456C924.797 564.842 924.797 570.522 924.797 577.623V591.54Z" fill="#FEAF03"/>
<path d="M891.277 581.429H872.929L868.896 591.54H860.205L876.735 551.436H887.358L904.683 591.54H895.538L891.277 581.429ZM875.202 574.612H888.835C884.745 564.785 882.757 559.956 881.791 557.003H881.734C880.882 559.843 878.553 566.205 875.202 574.612Z" fill="#FEAF03"/>
<path d="M830.897 575.464H821.808V591.54H813.458V551.436H834.476C843.394 551.436 848.734 555.696 848.734 562.683C848.734 567.739 845.893 570.92 841.633 572.226C843.621 572.908 847.711 574.612 847.711 581.769V583.644C847.711 586.541 847.654 589.722 848.166 591.54H839.531C838.906 589.779 838.85 587.166 838.85 583.19V581.883C838.85 577.225 837.146 575.464 830.897 575.464ZM821.808 557.855V569.045H832.488C837.714 569.045 840.099 567.171 840.099 563.365C840.099 559.786 837.714 557.855 832.658 557.855H821.808Z" fill="#FEAF03"/>
<path d="M777.408 591.54V558.196H762.866V551.436H800.3V558.196H785.815V591.54H777.408Z" fill="#FEAF03"/>
<rect x="1743.8" y="567.992" width="79.9743" height="6.99593" fill="#FEAF03"/>
</svg>
