<svg width="1662" height="424" viewBox="0 0 1662 424" fill="none" xmlns="http://www.w3.org/2000/svg">
<path d="M486.371 125.911C488.27 125.481 488.689 125.523 490.641 125.647L491.468 126.754C491.714 135.362 480.712 176.361 478.537 186.544C474.459 205.429 470.525 224.346 466.734 243.291C462.991 262.429 459.825 281.082 454.439 299.839C447.418 284.683 430.643 264.398 421.588 246.48C368.502 306.761 284.161 362.2 207.561 386.969C142.953 407.926 74.1662 412.583 7.32302 400.526C3.98115 399.964 3.14071 399.881 0.116879 398.428L0 397.35C4.14336 395.372 38.3 391.295 46.2297 389.584C94.3661 379.194 140.443 365.009 184.548 342.628C204.545 332.393 222.69 319.665 241.999 308.351C278.425 287.008 307.567 259.225 338.636 231.136C348.278 222.419 357.272 211.673 367.391 203.77C352.314 195.33 323.812 181.252 310.939 171.519L426.849 140.326C441.99 136.383 471.841 127.983 486.371 125.911Z" fill="#FEAF03"/>
<path d="M225.59 0.304899C265.158 -3.04811 284.853 21.9106 314.062 42.8826C333.656 56.9522 354.318 70.54 373.583 85.2322C386.5 95.0837 402.679 104.284 412.855 117.059C396.168 119.223 374.075 127.16 357.487 132.328C348.325 125.238 337.169 118.415 328.226 111.26C312.652 98.9098 296.775 87.3233 280.394 75.9213C264.727 65.0171 242.266 44.1524 221.801 51.3212C209.391 55.6689 198.357 65.8727 187.689 73.2219C174.46 82.3364 160.898 90.8751 148.493 101.119C134.079 113.333 119.094 124.823 103.483 135.463C91.0762 143.921 78.216 149.731 71.8614 164.07C71.0957 167.046 70.1193 171.181 70.1615 174.289C70.9112 229.851 67.602 286.542 71.8749 341.79C72.2749 346.963 80.7659 352.763 85.0071 354.934C67.9272 360.957 55.7802 364.698 37.692 367.614C16.8568 348.755 19.9848 328.548 20.042 303.184L20.0412 252.452L19.9919 195.007C19.9848 183.152 19.6397 169.644 21.0463 157.997C21.6593 152.919 29.2177 135.957 32.3353 132.125C50.4083 109.911 81.0768 90.3718 104.406 74.5187C114.389 67.6004 124.283 60.5549 134.087 53.3837C163.114 32.3537 189.076 5.25053 225.59 0.304899Z" fill="white"/>
<path d="M418.753 290.923C420.68 293.487 422.908 327.683 422.932 333.059C423.036 356.602 426.039 383.095 407.966 401.445C400.645 408.878 387.462 418.63 377.268 420.662C358.937 424.315 333.288 422.877 314.253 422.915C275.191 422.667 236.129 422.765 197.07 423.21C196.034 423.264 195.457 423.07 194.436 422.873L194.519 422.109C198.542 419.303 207.413 417.336 212.369 415.311C241.722 403.315 272.511 395.262 299.548 378.13C302.064 376.535 310.072 372.646 312.642 372.479C360.187 369.379 380.687 385.675 375.546 326.518C383.498 322.316 412.124 298.113 418.753 290.923Z" fill="white"/>
<path d="M491.473 340.627L571.324 256.815H791.675C806.512 256.815 815.239 250.702 815.239 238.918C815.239 230.187 808.259 226.259 796.038 226.259H664.196C597.434 226.259 567.764 197.014 567.764 155.106C567.764 91.813 606.598 48.5947 713.503 48.5947H938.288L857.567 133.713H688.629C672.923 133.713 665.502 138.079 665.502 150.3C665.502 159.031 672.046 162.085 683.829 162.085H816.109C879.376 162.085 913.851 185.221 913.851 228.873C913.851 286.931 888.544 340.619 775.531 340.619H491.473V340.627Z" fill="white"/>
<path d="M938.288 340.625L990.212 48.5965H1091.01L1053.92 256.813H1276.02L1195.73 340.625H938.288Z" fill="white"/>
<path d="M1395.58 237.609L1377.25 340.625H1276.02L1327.94 48.5965H1660.87L1580.58 133.715H1413.46L1409.54 158.595H1625.09L1549.6 237.605H1395.57L1395.58 237.609Z" fill="white"/>
<rect x="491.473" y="398.817" width="79.9743" height="6.99593" fill="#FEAF03"/>
<path d="M1515.01 410.438H1523.47C1524.72 414.301 1527.73 416.914 1534.77 416.914C1541.53 416.914 1543.75 414.642 1543.75 411.688C1543.75 408.564 1541.76 406.689 1532.73 405.156C1519.38 402.883 1516.71 398.623 1516.71 393.227C1516.71 385.501 1524.09 381.411 1533.35 381.411C1546.87 381.411 1550.4 388.455 1550.85 392.886H1542.44C1541.76 390.67 1540.34 387.716 1533.13 387.716C1528.13 387.716 1525.29 389.307 1525.29 392.374C1525.29 395.044 1526.93 396.464 1535 397.885C1550 400.554 1552.38 405.099 1552.38 410.836C1552.38 417.596 1547.04 423.163 1534.04 423.163C1521.88 423.163 1516.26 417.709 1515.01 410.438Z" fill="white"/>
<path d="M1472.94 422.365V382.261H1481.29V415.549H1504.35L1503.22 422.365H1472.94Z" fill="white"/>
<path d="M1447.15 412.254H1428.8L1424.77 422.365H1416.08L1432.61 382.261H1443.23L1460.55 422.365H1451.41L1447.15 412.254ZM1431.07 405.437H1444.71C1440.62 395.61 1438.63 390.782 1437.66 387.828H1437.61C1436.75 390.668 1434.42 397.03 1431.07 405.437Z" fill="white"/>
<path d="M1395.85 422.365H1385.91L1369.15 382.261H1378.47L1386.19 402.086C1389.09 409.527 1390.28 413.333 1391.02 415.833H1391.14C1391.76 413.617 1392.73 411.061 1396.14 401.916L1403.86 382.261H1412.89L1395.85 422.365Z" fill="white"/>
<path d="M1338.22 381.411C1351.85 381.411 1359.64 391.182 1359.64 402.145C1359.64 413.335 1352.14 423.219 1337.88 423.219C1324.53 423.219 1316.64 413.903 1316.64 402.202C1316.64 391.125 1324.87 381.411 1338.22 381.411ZM1337.94 388.057C1329.64 388.057 1325.5 394.76 1325.5 402.088C1325.5 409.984 1329.81 416.516 1338.34 416.516C1346.97 416.516 1350.72 409.529 1350.72 402.258C1350.72 394.76 1346.69 388.057 1337.94 388.057Z" fill="white"/>
<path d="M1293.45 422.365V406.346C1293.45 399.246 1293.45 392.088 1293.67 387.714H1293.62C1291.63 394.701 1286.86 407.937 1281.8 422.365H1274.42C1270.5 409.982 1265.22 394.929 1263.06 387.714H1263C1263.28 392.372 1263.62 400.382 1263.62 407.198V422.365H1256.01V382.261H1268.11C1272.66 394.872 1277.37 407.596 1278.56 412.481H1278.62C1280.38 406.63 1285.04 394.304 1289.36 382.261H1301.57V422.365H1293.45Z" fill="white"/>
<path d="M1239.28 398.053V404.869H1216.39V415.549H1241.78L1240.81 422.365H1207.98V382.261H1240.53V389.078H1216.39V398.053H1239.28Z" fill="white"/>
<path d="M1174.5 406.289H1165.41V422.365H1157.06V382.261H1178.08C1187 382.261 1192.34 386.521 1192.34 393.508C1192.34 398.564 1189.5 401.745 1185.24 403.052C1187.22 403.733 1191.31 405.437 1191.31 412.595V414.469C1191.31 417.366 1191.26 420.547 1191.77 422.365H1183.13C1182.51 420.604 1182.45 417.991 1182.45 414.015V412.708C1182.45 408.05 1180.75 406.289 1174.5 406.289ZM1165.41 388.68V399.871H1176.09C1181.32 399.871 1183.7 397.996 1183.7 394.19C1183.7 390.611 1181.32 388.68 1176.26 388.68H1165.41Z" fill="white"/>
<path d="M1089.4 416.63C1092.41 416.63 1094.28 415.721 1097.07 412.711L1087.35 404.303C1083.94 406.121 1082.98 408.45 1082.98 410.666C1082.98 413.903 1085.42 416.63 1089.4 416.63ZM1110.07 396.464H1119.16L1106.84 411.234L1119.73 422.367H1108.31L1102.01 416.971C1098.6 420.663 1095.02 423.163 1088.66 423.163C1079.06 423.163 1075.03 417.028 1075.03 411.574C1075.03 407.087 1077.13 404.019 1083.32 400.498C1080.54 397.885 1079.29 395.215 1079.29 391.92C1079.29 386.524 1083.6 381.411 1091.44 381.411C1099.74 381.411 1103.2 386.58 1103.2 391.238C1103.2 395.612 1100.47 398.225 1094.91 400.952L1101.84 406.916L1110.07 396.464ZM1091.39 386.751C1088.49 386.751 1086.96 388.909 1086.96 391.295C1086.96 393.283 1088.15 395.215 1090.82 397.26C1094.57 395.442 1095.99 393.511 1095.99 391.295C1095.99 389.137 1094.74 386.751 1091.39 386.751Z" fill="white"/>
<path d="M1018.85 422.365V389.021H1004.31V382.261H1041.74V389.021H1027.26V422.365H1018.85Z" fill="white"/>
<path d="M975.327 406.289H966.238V422.365H957.888V382.261H978.905C987.824 382.261 993.163 386.521 993.163 393.508C993.163 398.564 990.323 401.745 986.063 403.052C988.051 403.733 992.141 405.437 992.141 412.595V414.469C992.141 417.366 992.084 420.547 992.595 422.365H983.961C983.336 420.604 983.279 417.991 983.279 414.015V412.708C983.279 408.05 981.575 406.289 975.327 406.289ZM966.238 388.68V399.871H976.917C982.143 399.871 984.529 397.996 984.529 394.19C984.529 390.611 982.143 388.68 977.088 388.68H966.238Z" fill="white"/>
<path d="M921.397 381.411C935.03 381.411 942.813 391.182 942.813 402.145C942.813 413.335 935.314 423.219 921.056 423.219C907.707 423.219 899.812 413.903 899.812 402.202C899.812 391.125 908.048 381.411 921.397 381.411ZM921.113 388.057C912.82 388.057 908.673 394.76 908.673 402.088C908.673 409.984 912.99 416.516 921.511 416.516C930.145 416.516 933.894 409.529 933.894 402.258C933.894 394.76 929.861 388.057 921.113 388.057Z" fill="white"/>
<path d="M852.225 422.365V382.261H872.333C881.877 382.261 887.557 387.09 887.557 394.588C887.557 402.711 881.82 407.426 872.277 407.426H860.632V422.365H852.225ZM860.632 388.85V400.779H871.538C876.083 400.779 879.093 399.303 879.093 394.701C879.093 391.066 876.764 388.85 871.538 388.85H860.632Z" fill="white"/>
<path d="M799.612 410.438H808.076C809.326 414.301 812.337 416.914 819.38 416.914C826.14 416.914 828.355 414.642 828.355 411.688C828.355 408.564 826.367 406.689 817.335 405.156C803.986 402.883 801.316 398.623 801.316 393.227C801.316 385.501 808.701 381.411 817.96 381.411C831.48 381.411 835.002 388.455 835.456 392.886H827.049C826.367 390.67 824.947 387.716 817.733 387.716C812.734 387.716 809.894 389.307 809.894 392.374C809.894 395.044 811.541 396.464 819.608 397.885C834.604 400.554 836.99 405.099 836.99 410.836C836.99 417.596 831.65 423.163 818.642 423.163C806.486 423.163 800.862 417.709 799.612 410.438Z" fill="white"/>
<path d="M755.622 422.365H747.896V382.261H757.837C768.403 397.939 775.617 407.539 778.06 412.084H778.173C777.776 407.539 777.833 400.382 777.833 393.849V382.261H785.615V422.365H776.242C771.754 415.719 757.951 395.213 755.395 390.611H755.281C755.622 395.667 755.622 401.347 755.622 408.448V422.365Z" fill="white"/>
<path d="M722.102 412.254H703.755L699.721 422.365H691.03L707.56 382.261H718.183L735.508 422.365H726.363L722.102 412.254ZM706.027 405.437H719.66C715.57 395.61 713.582 390.782 712.616 387.828H712.559C711.707 390.668 709.378 397.03 706.027 405.437Z" fill="white"/>
<path d="M661.722 406.289H652.633V422.365H644.283V382.261H665.301C674.219 382.261 679.559 386.521 679.559 393.508C679.559 398.564 676.719 401.745 672.458 403.052C674.446 403.733 678.536 405.437 678.536 412.595V414.469C678.536 417.366 678.48 420.547 678.991 422.365H670.357C669.732 420.604 669.675 417.991 669.675 414.015V412.708C669.675 408.05 667.971 406.289 661.722 406.289ZM652.633 388.68V399.871H663.313C668.539 399.871 670.925 397.996 670.925 394.19C670.925 390.611 668.539 388.68 663.483 388.68H652.633Z" fill="white"/>
<path d="M608.233 422.365V389.021H593.691V382.261H631.126V389.021H616.64V422.365H608.233Z" fill="white"/>
<rect x="1574.63" y="398.817" width="79.9743" height="6.99593" fill="#FEAF03"/>
</svg>
