<svg width="32" height="32" viewBox="0 0 32 32" fill="none" xmlns="http://www.w3.org/2000/svg">
<path d="M27 26H25V1C25 0.4475 24.5525 0 24 0H8C7.4475 0 7 0.4475 7 1V26H5C4.4475 26 4 26.4475 4 27V31C4 31.5525 4.4475 32 5 32H27C27.5525 32 28 31.5525 28 31V27C28 26.4475 27.5525 26 27 26ZM9 2H23V26H21V19C21 18.4475 20.5525 18 20 18H12C11.4475 18 11 18.4475 11 19V26H9V2ZM16 22C16.5525 22 17 21.5525 17 21V20H19V26H13V20H15V21C15 21.5525 15.4475 22 16 22ZM26 30H6V28H26V30Z" fill="#FEAF03"/>
<path d="M20 15C20.5523 15 21 14.5523 21 14C21 13.4477 20.5523 13 20 13C19.4477 13 19 13.4477 19 14C19 14.5523 19.4477 15 20 15Z" fill="#FEAF03"/>
</svg>
