<svg width="32" height="32" viewBox="0 0 32 32" fill="none" xmlns="http://www.w3.org/2000/svg">
<path d="M3 8H5.333L10.05 19.321C9.405 20.032 9 20.966 9 22C9 24.206 10.794 26 13 26C15.206 26 17 24.206 17 22C17 21.568 16.914 21.159 16.786 20.769L29.359 15.933C29.875 15.734 30.132 15.156 29.934 14.641C29.742 14.141 29.192 13.895 28.692 14.058L26.01 7.616C25.798 7.107 25.213 6.867 24.704 7.076L19.16 9.372L17.774 9.946L13.616 11.668C13.364 11.772 13.165 11.976 13.067 12.23C12.968 12.485 12.978 12.769 13.093 13.016L14.093 15.152C14.327 15.653 14.924 15.869 15.423 15.634C15.923 15.4 16.139 14.804 15.905 14.304L15.348 13.116L17.615 12.177L18.381 14.025C18.541 14.41 18.913 14.643 19.305 14.643C19.432 14.643 19.562 14.618 19.687 14.566L22.458 13.418C22.968 13.207 23.21 12.622 22.999 12.111L22.234 10.264L24.545 9.307L26.818 14.768L17.753 18.255L16.968 16.578C16.734 16.078 16.138 15.863 15.638 16.096C15.138 16.33 14.922 16.926 15.156 17.426L15.882 18.975L15.679 19.053C14.969 18.405 14.034 18 13 18C12.563 18 12.151 18.088 11.757 18.218L6.923 6.615C6.768 6.243 6.404 6 6 6H3C2.448 6 2 6.448 2 7C2 7.552 2.448 8 3 8ZM20.388 11.029L20.77 11.953L19.846 12.335L19.463 11.411L20.047 11.169L20.388 11.029ZM15 22C15 23.103 14.103 24 13 24C11.897 24 11 23.103 11 22C11 20.897 11.897 20 13 20C14.103 20 15 20.897 15 22Z" fill="#FEAF03"/>
<path d="M3 18H5C5.552 18 6 17.553 6 17C6 16.448 5.552 16 5 16H3C2.448 16 2 16.448 2 17C2 17.553 2.448 18 3 18Z" fill="#FEAF03"/>
<path d="M3 22H6C6.552 22 7 21.553 7 21C7 20.447 6.552 20 6 20H3C2.448 20 2 20.447 2 21C2 21.553 2.448 22 3 22Z" fill="#FEAF03"/>
<path d="M3 26H7C7.552 26 8 25.553 8 25C8 24.447 7.552 24 7 24H3C2.448 24 2 24.447 2 25C2 25.553 2.448 26 3 26Z" fill="#FEAF03"/>
</svg>
