<svg width="32" height="32" viewBox="0 0 32 32" fill="none" xmlns="http://www.w3.org/2000/svg">
<g clip-path="url(#clip0_102_1022)">
<path d="M24.1684 19.0252C21.9442 19.0252 20.1348 20.8346 20.1348 23.0588C20.1348 25.283 21.9442 27.0925 24.1684 27.0925C26.393 27.0925 28.202 25.283 28.202 23.0588C28.202 20.8346 26.3926 19.0252 24.1684 19.0252ZM24.1684 25.0756C23.0561 25.0756 22.1516 24.1711 22.1516 23.0588C22.1516 21.9466 23.0561 21.042 24.1684 21.042C25.2806 21.042 26.1852 21.9466 26.1852 23.0588C26.1852 24.1711 25.2806 25.0756 24.1684 25.0756Z" fill="#FEAF03"/>
<path d="M10.3862 19.0252C8.16198 19.0252 6.35254 20.8346 6.35254 23.0588C6.35254 25.283 8.16198 27.0925 10.3862 27.0925C12.6104 27.0925 14.4198 25.283 14.4198 23.0588C14.4198 20.8346 12.6104 19.0252 10.3862 19.0252ZM10.3862 25.0756C9.27391 25.0756 8.36935 24.1711 8.36935 23.0588C8.36935 21.9466 9.27391 21.042 10.3862 21.042C11.4981 21.042 12.403 21.9466 12.403 23.0588C12.403 24.1711 11.4984 25.0756 10.3862 25.0756Z" fill="#FEAF03"/>
<path d="M26.884 7.47969C26.7126 7.13919 26.364 6.92438 25.9828 6.92438H20.6719V8.94119H25.3609L28.1068 14.4027L29.9092 13.4964L26.884 7.47969Z" fill="#FEAF03"/>
<path d="M21.1429 22.084H13.5127V24.1009H21.1429V22.084Z" fill="#FEAF03"/>
<path d="M7.36155 22.084H3.8658C3.3088 22.084 2.85742 22.5355 2.85742 23.0924C2.85742 23.6494 3.30886 24.1008 3.8658 24.1008H7.36161C7.91861 24.1008 8.36998 23.6494 8.36998 23.0924C8.36998 22.5354 7.91855 22.084 7.36155 22.084Z" fill="#FEAF03"/>
<path d="M31.7885 15.9193L29.805 13.3647C29.6144 13.1187 29.3203 12.9748 29.0087 12.9748H21.6809V5.91597C21.6809 5.35897 21.2295 4.90759 20.6725 4.90759H3.8658C3.3088 4.90759 2.85742 5.35903 2.85742 5.91597C2.85742 6.4729 3.30886 6.92434 3.8658 6.92434H19.6641V13.9832C19.6641 14.5402 20.1155 14.9915 20.6725 14.9915H28.5149L29.9834 16.8833V22.084H27.1935C26.6365 22.084 26.1851 22.5354 26.1851 23.0923C26.1851 23.6493 26.6365 24.1007 27.1935 24.1007H30.9918C31.5488 24.1007 32.0002 23.6493 32.0002 23.0923V16.5378C32.0002 16.314 31.9256 16.0962 31.7885 15.9193Z" fill="#FEAF03"/>
<path d="M7.29452 16.9748H2.65584C2.09884 16.9748 1.64746 17.4262 1.64746 17.9832C1.64746 18.5402 2.0989 18.9915 2.65584 18.9915H7.29446C7.85146 18.9915 8.30284 18.5401 8.30284 17.9832C8.3029 17.4262 7.85146 16.9748 7.29452 16.9748Z" fill="#FEAF03"/>
<path d="M9.61344 13.0084H1.00838C0.451438 13.0084 0 13.4598 0 14.0168C0 14.5738 0.451438 15.0252 1.00838 15.0252H9.61344C10.1704 15.0252 10.6218 14.5737 10.6218 14.0168C10.6218 13.4599 10.1704 13.0084 9.61344 13.0084Z" fill="#FEAF03"/>
<path d="M11.2609 9.04199H2.65584C2.09884 9.04199 1.64746 9.49343 1.64746 10.0504C1.64746 10.6074 2.0989 11.0587 2.65584 11.0587H11.2609C11.8179 11.0587 12.2693 10.6073 12.2693 10.0504C12.2693 9.49343 11.8179 9.04199 11.2609 9.04199Z" fill="#FEAF03"/>
</g>
<defs>
<clipPath id="clip0_102_1022">
<rect width="32" height="32" fill="white"/>
</clipPath>
</defs>
</svg>
