<svg width="32" height="32" viewBox="0 0 32 32" fill="none" xmlns="http://www.w3.org/2000/svg">
<path d="M18.5999 7.84003C18.3945 7.84513 18.1902 7.80768 17.9999 7.73003C17.795 7.62248 17.6187 7.46742 17.4859 7.27782C17.3532 7.08822 17.2677 6.86959 17.2367 6.6402C17.2057 6.41081 17.2301 6.17733 17.3078 5.95929C17.3855 5.74125 17.5142 5.54497 17.6833 5.38688C17.8524 5.22879 18.0569 5.11348 18.2796 5.05059C18.5024 4.98769 18.737 4.97904 18.9638 5.02536C19.1906 5.07168 19.403 5.17162 19.5833 5.31683C19.7635 5.46204 19.9064 5.6483 19.9999 5.86003C20.145 6.21581 20.145 6.61424 19.9999 6.97003C19.8837 7.2409 19.6871 7.46957 19.4367 7.62515C19.1864 7.78073 18.8943 7.85573 18.5999 7.84003Z" fill="#FEAF03"/>
<path d="M15.1198 30.37C14.5044 30.3668 13.8959 30.2411 13.3298 30L5.06976 26.42C4.52679 26.1872 4.03524 25.8492 3.6234 25.4256C3.21156 25.002 2.88758 24.5012 2.67009 23.9519C2.4526 23.4026 2.3459 22.8157 2.35614 22.225C2.36638 21.6343 2.49336 21.0514 2.72976 20.51L8.72976 6.69001C8.9595 6.15086 9.29324 5.66227 9.71191 5.25218C10.1306 4.84209 10.626 4.51853 11.1698 4.30001L17.0898 2.00001C18.1999 1.56373 19.4377 1.585 20.5322 2.05915C21.6267 2.53331 22.4887 3.42174 22.9298 4.53001L25.2698 10.44C25.4921 10.9893 25.6022 11.5775 25.5936 12.1701C25.585 12.7626 25.4579 13.3474 25.2198 13.89L19.2198 27.7C18.7472 28.7959 17.8588 29.6592 16.7498 30.1C16.2273 30.2881 15.675 30.3796 15.1198 30.37ZM4.55976 21.3C4.30093 21.9092 4.2922 22.5958 4.53545 23.2115C4.7787 23.8271 5.2544 24.3222 5.85976 24.59L14.1298 28.16C14.4304 28.2907 14.7539 28.3607 15.0816 28.366C15.4094 28.3714 15.735 28.312 16.0397 28.1912C16.3445 28.0704 16.6224 27.8906 16.8575 27.6622C17.0926 27.4338 17.2803 27.1612 17.4098 26.86L23.4098 13.04C23.6593 12.4278 23.6593 11.7422 23.4098 11.13L21.0698 5.21001C20.8248 4.59544 20.3463 4.103 19.739 3.84059C19.1317 3.57817 18.4452 3.56718 17.8298 3.81001L11.9098 6.15001C11.6037 6.27083 11.3248 6.45161 11.0895 6.68172C10.8542 6.91184 10.6673 7.18665 10.5398 7.49001L4.55976 21.3Z" fill="#FEAF03"/>
<path d="M20.2402 29C19.7667 28.9982 19.2969 28.9171 18.8502 28.76C18.608 28.6646 18.4126 28.4785 18.3054 28.2412C18.1983 28.004 18.1879 27.7343 18.2764 27.4895C18.365 27.2447 18.5455 27.0441 18.7796 26.9303C19.0137 26.8165 19.283 26.7984 19.5302 26.88C20.0353 27.0613 20.5905 27.0433 21.0829 26.8296C21.5752 26.616 21.9676 26.2228 22.1802 25.73L27.5002 13.38C27.7104 12.8605 27.7104 12.2796 27.5002 11.76L25.4402 6.50002C25.2545 6.0291 24.9064 5.64017 24.4589 5.40357C24.0114 5.16697 23.4939 5.09832 23.0002 5.21002C22.735 5.26572 22.4585 5.21377 22.2316 5.06562C22.0047 4.91747 21.8459 4.68524 21.7902 4.42002C21.7345 4.1548 21.7864 3.87833 21.9346 3.65141C22.0828 3.42449 22.315 3.26572 22.5802 3.21002C23.5418 3.00138 24.5464 3.1438 25.4121 3.61152C26.2779 4.07923 26.9476 4.84136 27.3002 5.76002L29.3902 11C29.5889 11.503 29.686 12.0403 29.6757 12.581C29.6654 13.1217 29.548 13.655 29.3302 14.15L24.0002 26.48C23.6879 27.2212 23.1654 27.8548 22.4973 28.3026C21.8291 28.7504 21.0445 28.9929 20.2402 29Z" fill="#FEAF03"/>
<path d="M17.0997 12.83C17.5728 13.1565 17.939 13.6153 18.1525 14.1489C18.366 14.6826 18.4172 15.2674 18.2997 15.83L15.8597 15.52C15.9618 15.3311 16.0004 15.1144 15.9698 14.9019C15.9392 14.6894 15.841 14.4924 15.6897 14.34C15.5879 14.2262 15.4613 14.1373 15.3197 14.08C15.1642 14.0033 14.9932 13.9634 14.8197 13.9634C14.6463 13.9634 14.4753 14.0033 14.3197 14.08C14.2257 14.1292 14.1489 14.206 14.0997 14.3C13.9697 14.59 14.0997 14.91 14.4997 15.3C14.7248 15.5022 14.9655 15.6861 15.2197 15.85C15.8098 16.2521 16.3357 16.7409 16.7797 17.3C17.0172 17.6498 17.1571 18.0565 17.1852 18.4783C17.2134 18.9001 17.1286 19.3218 16.9397 19.7C16.7636 20.0715 16.4903 20.3884 16.1488 20.6173C15.8073 20.8461 15.4103 20.9784 14.9997 21C14.5226 21.0746 14.0368 21.0746 13.5597 21L13.2497 21.72L10.9997 20.72L11.3197 19.99C10.9461 19.7162 10.6351 19.3658 10.4075 18.9623C10.1799 18.5588 10.0409 18.1115 9.99975 17.65C9.95972 17.3983 9.95972 17.1418 9.99975 16.89L12.4497 17.2C12.3524 17.3994 12.3241 17.6256 12.3693 17.8428C12.4146 18.0601 12.5308 18.2561 12.6997 18.4C12.843 18.5445 13.0127 18.6599 13.1997 18.74C13.3873 18.8492 13.597 18.9148 13.8134 18.9321C14.0297 18.9494 14.2472 18.918 14.4497 18.84C14.5364 18.8017 14.607 18.7346 14.6497 18.65C14.7797 18.34 14.6497 18.01 14.2697 17.65L13.1697 16.81C12.4913 16.3774 11.9638 15.745 11.6597 15C11.5005 14.4165 11.5573 13.795 11.8197 13.25C11.9898 12.8857 12.2498 12.5706 12.5752 12.3345C12.9005 12.0983 13.2807 11.9488 13.6797 11.9C14.0617 11.8548 14.4477 11.8548 14.8297 11.9L15.1597 11.15L17.3997 12.15L17.0997 12.83Z" fill="#FEAF03"/>
</svg>
